<svg width="32" height="32" viewBox="0 0 32 32" fill="none" xmlns="http://www.w3.org/2000/svg">
<path d="M13.8225 2.4135L21.3495 9.9495L21.4295 9.8695C21.5872 9.71518 21.7983 9.62768 22.0189 9.62526C22.2395 9.62284 22.4525 9.70568 22.6135 9.8565L22.6195 9.8625L23.4865 10.7295C23.7915 11.0345 23.8015 11.4995 23.5695 11.8235L23.5655 11.8305L23.4225 12.0225L29.5825 18.1825C30.1325 18.7325 30.1325 19.6125 29.5825 20.1625L20.1525 29.5925C19.6025 30.1425 18.7225 30.1425 18.1725 29.5925L13.7255 25.1455C13.6516 25.2386 13.5589 25.315 13.4534 25.3697C13.3479 25.4244 13.2321 25.4561 13.1134 25.4628C12.9948 25.4695 12.8761 25.451 12.7651 25.4086C12.6541 25.3661 12.5534 25.3007 12.4695 25.2165L9.8695 22.6165C9.71518 22.4588 9.62768 22.2477 9.62526 22.0271C9.62284 21.8065 9.70568 21.5935 9.8565 21.4325L9.8625 21.4255L9.9395 21.3495L2.4125 13.8225C1.8625 13.2725 1.8625 12.3925 2.4125 11.8425L11.8425 2.4125C12.3925 1.8625 13.2725 1.8625 13.8225 2.4125V2.4135ZM20.4045 10.8935L18.6485 9.1385C18.5933 9.08159 18.5273 9.03634 18.4543 9.00544C18.3812 8.97454 18.3028 8.95862 18.2235 8.95862C18.1442 8.95862 18.0658 8.97454 17.9928 9.00544C17.9197 9.03634 17.8537 9.08159 17.7985 9.1385L14.2185 12.7185C14.1618 12.7748 14.1168 12.8418 14.086 12.9156C14.0553 12.9894 14.0395 13.0686 14.0395 13.1485C14.0395 13.2284 14.0553 13.3076 14.086 13.3814C14.1168 13.4552 14.1618 13.5222 14.2185 13.5785L15.9675 15.3275L16.5775 14.7175L15.0125 13.1525L18.2225 9.9325L19.7915 11.5065L20.4045 10.8935ZM15.3285 15.9655L13.5745 14.2115C13.5193 14.1546 13.4533 14.1093 13.3803 14.0784C13.3072 14.0475 13.2288 14.0316 13.1495 14.0316C13.0702 14.0316 12.9918 14.0475 12.9188 14.0784C12.8457 14.1093 12.7797 14.1546 12.7245 14.2115L9.1445 17.7915L9.1395 17.7965L9.1345 17.8015C8.8945 18.0315 8.8945 18.4115 9.1345 18.6515L10.8865 20.4035L11.5025 19.7875L9.9325 18.2235L13.1525 15.0135L14.7165 16.5765L15.3285 15.9655ZM8.8225 8.1935L12.4025 11.7735C12.6425 12.0135 13.0225 12.0135 13.2525 11.7635L16.8325 8.1835C16.8894 8.12933 16.9347 8.06417 16.9656 7.99197C16.9965 7.91978 17.0125 7.84205 17.0125 7.7635H17.0225C17.0225 7.6135 16.9625 7.4535 16.8425 7.3335L13.2625 3.7535C13.2062 3.69666 13.1393 3.65153 13.0655 3.62074C12.9917 3.58994 12.9125 3.57409 12.8325 3.57409C12.7525 3.57409 12.6733 3.58994 12.5995 3.62074C12.5257 3.65153 12.4588 3.69666 12.4025 3.7535L8.8225 7.3435C8.5825 7.5735 8.5825 7.9535 8.8225 8.1935ZM3.7525 13.2635L7.3325 16.8435C7.5725 17.0835 7.9525 17.0835 8.1825 16.8435L11.7625 13.2635C11.8206 13.2082 11.8666 13.1414 11.8976 13.0674C11.9286 12.9934 11.9439 12.9137 11.9425 12.8335H11.9525C11.9525 12.6735 11.8925 12.5235 11.7725 12.4035L8.1925 8.8235C8.13731 8.76659 8.07126 8.72134 7.99825 8.69044C7.92525 8.65954 7.84678 8.64361 7.7675 8.64361C7.68822 8.64361 7.60976 8.65954 7.53675 8.69044C7.46374 8.72134 7.39769 8.76659 7.3425 8.8235L3.7525 12.4135C3.5125 12.6435 3.5125 13.0235 3.7525 13.2635ZM10.6855 22.0175L13.0475 24.3805L22.6835 11.3405L22.0285 10.6855L10.6855 22.0175Z" fill="#111111"/>
<path d="M13.8225 2.4135L21.3495 9.9495L21.4295 9.8695C21.5872 9.71518 21.7983 9.62768 22.0189 9.62526C22.2395 9.62284 22.4525 9.70568 22.6135 9.8565L22.6195 9.8625L23.4865 10.7295C23.7915 11.0345 23.8015 11.4995 23.5695 11.8235L23.5655 11.8305L23.4225 12.0225L29.5825 18.1825C30.1325 18.7325 30.1325 19.6125 29.5825 20.1625L20.1525 29.5925C19.6025 30.1425 18.7225 30.1425 18.1725 29.5925L13.7255 25.1455C13.6516 25.2386 13.5589 25.315 13.4534 25.3697C13.3479 25.4244 13.2321 25.4561 13.1134 25.4628C12.9948 25.4695 12.8761 25.451 12.7651 25.4086C12.6541 25.3661 12.5534 25.3007 12.4695 25.2165L9.8695 22.6165C9.71518 22.4588 9.62768 22.2477 9.62526 22.0271C9.62284 21.8065 9.70568 21.5935 9.8565 21.4325L9.8625 21.4255L9.9395 21.3495L2.4125 13.8225C1.8625 13.2725 1.8625 12.3925 2.4125 11.8425L11.8425 2.4125C12.3925 1.8625 13.2725 1.8625 13.8225 2.4125V2.4135ZM20.4045 10.8935L18.6485 9.1385C18.5933 9.08159 18.5273 9.03634 18.4543 9.00544C18.3812 8.97454 18.3028 8.95862 18.2235 8.95862C18.1442 8.95862 18.0658 8.97454 17.9928 9.00544C17.9197 9.03634 17.8537 9.08159 17.7985 9.1385L14.2185 12.7185C14.1618 12.7748 14.1168 12.8418 14.086 12.9156C14.0553 12.9894 14.0395 13.0686 14.0395 13.1485C14.0395 13.2284 14.0553 13.3076 14.086 13.3814C14.1168 13.4552 14.1618 13.5222 14.2185 13.5785L15.9675 15.3275L16.5775 14.7175L15.0125 13.1525L18.2225 9.9325L19.7915 11.5065L20.4045 10.8935ZM15.3285 15.9655L13.5745 14.2115C13.5193 14.1546 13.4533 14.1093 13.3803 14.0784C13.3072 14.0475 13.2288 14.0316 13.1495 14.0316C13.0702 14.0316 12.9918 14.0475 12.9188 14.0784C12.8457 14.1093 12.7797 14.1546 12.7245 14.2115L9.1445 17.7915L9.1395 17.7965L9.1345 17.8015C8.8945 18.0315 8.8945 18.4115 9.1345 18.6515L10.8865 20.4035L11.5025 19.7875L9.9325 18.2235L13.1525 15.0135L14.7165 16.5765L15.3285 15.9655ZM8.8225 8.1935L12.4025 11.7735C12.6425 12.0135 13.0225 12.0135 13.2525 11.7635L16.8325 8.1835C16.8894 8.12933 16.9347 8.06417 16.9656 7.99197C16.9965 7.91978 17.0125 7.84205 17.0125 7.7635H17.0225C17.0225 7.6135 16.9625 7.4535 16.8425 7.3335L13.2625 3.7535C13.2062 3.69666 13.1393 3.65153 13.0655 3.62074C12.9917 3.58994 12.9125 3.57409 12.8325 3.57409C12.7525 3.57409 12.6733 3.58994 12.5995 3.62074C12.5257 3.65153 12.4588 3.69666 12.4025 3.7535L8.8225 7.3435C8.5825 7.5735 8.5825 7.9535 8.8225 8.1935ZM3.7525 13.2635L7.3325 16.8435C7.5725 17.0835 7.9525 17.0835 8.1825 16.8435L11.7625 13.2635C11.8206 13.2082 11.8666 13.1414 11.8976 13.0674C11.9286 12.9934 11.9439 12.9137 11.9425 12.8335H11.9525C11.9525 12.6735 11.8925 12.5235 11.7725 12.4035L8.1925 8.8235C8.13731 8.76659 8.07126 8.72134 7.99825 8.69044C7.92525 8.65954 7.84678 8.64361 7.7675 8.64361C7.68822 8.64361 7.60976 8.65954 7.53675 8.69044C7.46374 8.72134 7.39769 8.76659 7.3425 8.8235L3.7525 12.4135C3.5125 12.6435 3.5125 13.0235 3.7525 13.2635ZM10.6855 22.0175L13.0475 24.3805L22.6835 11.3405L22.0285 10.6855L10.6855 22.0175Z" fill="#FD9222"/>
</svg>
